<svg width="32" height="32" viewBox="0 0 32 32" fill="none" xmlns="http://www.w3.org/2000/svg">
<path d="M11.1536 14.1847C10.9668 14.1949 10.7808 14.1532 10.6162 14.0643C10.4516 13.9754 10.3148 13.8427 10.221 13.6809C10.1271 13.5191 10.0798 13.3345 10.0843 13.1474C10.0888 12.9604 10.1449 12.7783 10.2465 12.6212L15.6456 4.04141C15.7305 3.88864 15.8533 3.76038 16.0023 3.66905C16.1513 3.57773 16.3214 3.52645 16.496 3.52018C16.6706 3.51392 16.8439 3.55287 16.9991 3.63328C17.1542 3.71368 17.286 3.83281 17.3816 3.9791L22.7459 12.5907C22.8516 12.7426 22.9138 12.9205 22.9257 13.1051C22.9376 13.2898 22.8988 13.4742 22.8134 13.6383C22.7281 13.8025 22.5994 13.9402 22.4414 14.0365C22.2834 14.1328 22.1021 14.184 21.9171 14.1847H11.1536Z" stroke="#217BC0" stroke-linecap="round" stroke-linejoin="round"/>
<path d="M13.1429 18.667H5.52381C4.68223 18.667 4 19.3492 4 20.1908V27.8098C4 28.6514 4.68223 29.3337 5.52381 29.3337H13.1429C13.9844 29.3337 14.6667 28.6514 14.6667 27.8098V20.1908C14.6667 19.3492 13.9844 18.667 13.1429 18.667Z" stroke="#217BC0" stroke-linecap="round" stroke-linejoin="round"/>
<path d="M23.9993 29.3337C26.9449 29.3337 29.3327 26.9458 29.3327 24.0003C29.3327 21.0548 26.9449 18.667 23.9993 18.667C21.0538 18.667 18.666 21.0548 18.666 24.0003C18.666 26.9458 21.0538 29.3337 23.9993 29.3337Z" stroke="#217BC0" stroke-linecap="round" stroke-linejoin="round"/>
</svg>
