<svg width="32" height="32" viewBox="0 0 32 32" fill="none" xmlns="http://www.w3.org/2000/svg">
<path d="M21.1667 4H8.33333C7.71449 4 7.121 4.28095 6.68342 4.78105C6.24583 5.28115 6 5.95942 6 6.66667V25.3333C6 26.0406 6.24583 26.7189 6.68342 27.219C7.121 27.719 7.71449 28 8.33333 28H24.6667C25.2855 28 25.879 27.719 26.3166 27.219C26.7542 26.7189 27 26.0406 27 25.3333V10.6667L21.1667 4Z" stroke="#4A81BA" stroke-linecap="round" stroke-linejoin="round"/>
<path d="M19 4V9.33333C19 10.0406 19.281 10.7189 19.781 11.219C20.2811 11.719 20.9594 12 21.6667 12H27" stroke="#4A81BA" stroke-linecap="round" stroke-linejoin="round"/>
</svg>
